<svg xmlns="http://www.w3.org/2000/svg" xmlns:xlink="http://www.w3.org/1999/xlink" viewBox="0 0 587.7 126.47"><defs><style>.cls-1{fill:#fff;}.cls-2{fill:#231f20;}.cls-2,.cls-3{opacity:0.1;}.cls-3{fill:url(#linear-gradient);}.cls-4{fill:#f3a61e;}</style><linearGradient id="linear-gradient" x1="43.48" y1="33.87" x2="120.65" y2="111.05" gradientUnits="userSpaceOnUse"><stop offset="0"/><stop offset="0.6" stop-color="#979797"/><stop offset="1" stop-color="#fff"/></linearGradient></defs><title>Asset 3</title><g id="Layer_2" data-name="Layer 2"><g id="Layer_1-2" data-name="Layer 1"><path class="cls-1" d="M113.17,113.93c-6.67,6.56-19.64,10.43-34.28,11.88-24.49,2.43-53.65-1.93-65.72-11.88-19.3-15.9-15.71-80.55,0-100s82.32-17.68,100,0c8.32,8.32,12.76,27.05,13.27,46.39C127,82.1,122.61,104.64,113.17,113.93Z"/><path class="cls-2" d="M126.47,66.05c-.29-19.94-4.75-39.56-13.31-48.12-17.67-17.67-84.28-19.44-100,0C5.19,27.81.33,49.33,0,70.21-.27,48.14,4.67,24.44,13.16,13.93c15.72-19.44,82.33-17.67,100,0C122.29,23.06,126.75,44.78,126.47,66.05Z"/><path class="cls-2" d="M113.16,113.93c-17.82,17.53-80.7,15.9-100,0C3.69,106.13-.27,86.56,0,66.37c.27,18.74,4.3,36.28,13.15,43.56,19.3,15.9,82.18,17.53,100,0,8.6-8.45,13-27.89,13.31-47.74C126.75,83.38,122.34,104.91,113.16,113.93Z"/><path class="cls-3" d="M126.44,60.32c.57,21.78-3.83,44.32-13.27,53.61-6.67,6.56-19.64,10.43-34.28,11.88v-.07h-.08v-.07h-.07v-.07h-.07v-.07H78.6v-.07h-.07v-.08h-.07v-.07h-.07v-.07h-.07v-.07h-.07v-.07h-.07V125h-.07V125H78v-.07H78v-.07h-.08v-.07h-.07v-.07h-.07v-.07h-.07v-.07h-.07v-.08h-.07v-.07h-.07v-.07H77.4v-.07h-.07v-.07h-.07v-.07h-.07V124h-.07V124h-.07v-.07H77v-.07H76.9v-.07h-.07v-.07h-.07v-.07h-.07v-.08h-.07v-.07h-.07v-.07h-.07v-.07h-.07v-.07h-.07v-.07h-.07v-.07H76.2v-.07h-.07V123h-.08v-.07H76v-.07h-.07v-.07h-.07v-.07h-.07v-.08H75.7v-.07h-.07v-.07h-.07v-.07h-.07v-.07h-.07v-.07h-.07v-.07h-.07v-.07h-.07v-.07h-.08V122h-.07v-.07H75v-.07h-.07v-.07h-.07v-.08h-.07v-.07h-.07v-.07h-.07v-.07h-.07v-.07H74.5v-.07h-.07v-.07h-.07v-.07h-.07v-.07h-.08v-.07h-.07V121h-.07v-.07H74v-.07h-.07v-.08h-.07v-.07h-.07v-.07h-.07v-.07h-.07v-.07h-.07v-.07h-.07v-.07h-.07v-.07h-.07v-.07h-.08v-.07h-.07v-.07h-.07V120h-.07v-.07H73v-.08h-.07v-.07h-.07v-.07H72.8v-.07h-.07v-.07h-.07v-.07h-.07v-.07h-.07v-.07h-.08v-.07h-.07v-.07H72.3v-.07h-.07v-.07h-.07V119h-.07v-.07H72v-.07H72v-.07h-.07v-.07h-.07v-.07h-.07v-.07h-.07v-.07H71.6v-.07h-.08v-.07h-.07v-.07h-.07v-.07h-.07v-.07h-.07v-.08h-.07V118H71.1V118H71v-.07H71v-.07h-.07v-.07h-.07v-.07h-.07v-.07h-.07v-.07H70.6v-.07h-.07v-.07h-.07v-.07h-.07v-.07h-.07v-.08h-.07v-.07h-.07V117h-.07V117H70v-.07H70v-.07H69.9v-.07h-.07v-.07h-.07v-.07h-.08v-.07h-.07v-.07h-.07v-.07h-.07v-.07H69.4v-.08h-.07v-.07h-.07v-.07h-.07V116h-.07V116h-.07v-.07H69v-.07h-.07v-.07h-.07v-.07h-.08v-.07h-.07v-.07h-.07v-.07h-.07v-.07h-.07v-.08h-.07v-.07h-.07v-.07h-.07v-.07H68.2v-.07h-.07V115h-.07v-.07H68v-.07h-.07v-.07h-.08v-.07h-.07v-.07H67.7v-.07h-.07v-.07h-.07v-.08h-.07v-.07h-.07v-.07h-.07v-.07h-.07v-.07h-.07v-.07h-.07V114h-.07v-.07H67v-.07h-.08v-.07h-.07v-.07h-.07v-.07h-.07v-.07h-.07v-.08h-.07v-.07H66.5v-.07h-.07v-.07h-.07v-.07h-.07v-.07h-.07v-.07h-.07V113h-.07v-.07H66v-.07h-.07v-.07h-.07v-.07h-.07v-.07h-.07v-.08h-.07v-.07h-.07v-.07h-.07v-.07h-.07v-.07h-.07v-.07H65.3v-.07h-.07v-.07h-.08V112h-.07v-.07H65v-.07h-.07v-.07h-.07v-.08H64.8v-.07h-.07v-.07h-.07v-.07h-.07v-.07h-.07v-.07h-.07v-.07h-.07v-.07h-.07v-.07h-.08v-.07h-.07V111h-.07V111H64v-.07H64v-.08h-.07v-.07h-.07v-.07h-.07v-.07h-.07v-.07H63.6v-.07h-.07v-.07h-.07v-.07h-.07v-.07h-.08v-.07h-.07v-.07h-.07V110H63.1V110H63v-.08H63v-.07h-.07v-.07h-.07v-.07h-.07v-.07h-.07v-.07h-.07v-.07h-.07v-.07h-.07v-.07h-.08v-.07h-.07v-.07h-.07v-.07h-.07V109h-.07V109H62v-.07H62v-.07H61.9v-.07h-.07v-.07h-.07v-.07h-.07v-.07h-.07v-.07h-.07v-.07h-.08v-.07H61.4v-.07h-.07v-.07h-.07v-.07h-.07V108h-.07V108h-.07v-.07H61v-.07h-.07v-.07h-.07v-.07h-.07v-.07H60.7v-.07h-.07v-.07h-.08v-.07h-.07v-.07h-.07v-.07h-.07v-.07h-.07v-.08H60.2v-.07h-.07V107h-.07v-.07H60v-.07h-.07v-.07h-.07v-.07h-.07v-.07h-.07v-.07h-.08v-.07h-.07v-.07h-.07v-.07h-.07v-.07h-.07v-.08h-.07v-.07h-.07v-.07h-.07V106h-.07v-.07H59v-.07h-.07v-.07h-.07v-.07h-.07v-.07h-.08v-.07h-.07v-.07h-.07v-.07H58.5v-.07h-.07v-.08h-.07v-.07h-.07v-.07h-.07v-.07h-.07V105h-.07v-.07H58v-.07h-.07v-.07h-.07v-.07h-.08v-.07h-.07v-.07h-.07v-.07h-.07v-.07h-.07v-.08h-.07v-.07h-.07v-.07H57.3v-.07h-.07v-.07h-.07V104h-.07v-.07H57v-.07h-.08v-.07h-.07v-.07H56.8v-.07h-.07v-.07h-.07v-.08h-.07v-.07h-.07v-.07h-.07v-.07h-.07v-.07h-.07v-.07h-.07v-.07h-.07V103H56.1V103H56v-.07H56v-.07h-.07v-.07h-.07v-.07h-.07v-.08h-.07v-.07H55.6v-.07h-.07v-.07h-.07v-.07h-.07v-.07h-.07v-.07h-.07v-.07h-.07V102H55.1V102H55v-.07H55v-.07h-.07v-.07h-.07v-.08h-.07v-.07h-.07v-.07h-.07v-.07h-.07v-.07h-.07v-.07H54.4v-.07h-.07v-.07h-.07v-.07h-.08V101h-.07V101H54v-.07H54v-.07H53.9v-.08h-.07v-.07h-.07v-.07h-.07v-.07h-.07v-.07h-.07v-.07h-.07v-.07h-.07v-.07h-.07v-.07h-.08v-.07h-.07v-.07h-.07V100h-.07v-.07H53v-.08h-.07v-.07h-.07v-.07h-.07v-.07H52.7v-.07h-.07v-.07h-.07v-.07h-.07v-.07h-.07v-.07h-.08V99.2h-.07v-.07H52.2v-.07h-.07V99h-.07v-.08H52v-.07h-.07v-.07h-.07V98.7h-.07v-.07h-.07v-.07h-.07v-.07h-.07v-.07H51.5v-.07h-.08v-.07h-.07v-.07h-.07v-.07h-.07v-.07h-.07V98h-.07v-.07H51v-.07h-.07v-.07h-.07v-.07h-.07v-.07h-.07v-.07h-.07V97.5h-.07v-.07H50.5v-.07h-.07v-.07h-.07v-.07h-.07v-.07h-.07v-.08h-.07V97h-.07v-.07H50v-.07h-.07v-.07h-.07v-.07H49.8v-.07h-.07v-.07h-.08v-.07h-.07v-.07h-.07v-.07h-.07V85h0v-.07h-.07v-.07h-.07v-.07h-.07V84.7h-.07v-.07h-.07v-.07H49v-.08h-.07v-.07h-.07v-.07h-.08v-.07h-.07V84.2h-.07v-.07h-.07v-.07h-.07V84h-.07v-.07h-.07v-.07H48.3v-.07h-.07v-.07h-.07v-.07h-.07v-.08H48v-.07H48v-.07h-.08v-.07H47.8v-.07h-.07v-.07h-.07v-.07h-.07v-.07h-.07V83h-.07v-.07h-.07v-.07h-.07v-.07h-.07v-.08h-.07v-.07H47.1v-.07H47V82.5H47v-.07h-.07v-.07h-.07v-.07h-.07v-.07h-.07v-.07H46.6v-.07h-.07V82h-.07v-.07h-.07v-.07h-.07v-.08h-.07v-.07h-.07v-.07h-.07v-.07H46v-.07H46v-.07h-.07v-.07h-.07V81.3h-.07v-.07h-.07v-.07h-.07v-.07h-.07V81h-.07V81H45.4v-.08h-.07V80.8h-.07v-.07h-.07v-.07h-.08v-.07H45v-.07H45v-.07H44.9v-.07h-.07v-.07h-.07v-.07h-.07v-.07h-.07V80.1h-.07V80h-.07V80h-.07v-.07h-.07v-.07h-.07v-.07h-.08v-.07h-.07V79.6h-.07v-.07H44v-.07h-.07v-.07h-.07v-.07h-.07v-.07H43.7v-.07h-.07v-.07h-.07V79h-.07V79h-.07v-.07h-.07v-.07h-.08v-.07H43.2v-.07h-.07v-.07h-.07v-.07H43v-.07h-.07V78.4h-.07v-.07h-.07v-.07h-.07v-.07h-.07v-.08h-.07V78H42.5V78h-.08V77.9h-.07v-.07h-.07v-.07h-.07v-.07h-.07v-.07h-.07v-.07H42v-.07h-.07v-.07h-.07v-.07h-.07v-.07h-.07v-.08h-.07v-.07h-.07v-.07H41.5V77h-.07v-.07h-.07v-.07h-.07v-.07h-.07V76.7h-.07v-.07h-.07v-.07H41v-.07h-.07v-.07h-.07v-.07H40.8v-.08h-.07V76.2h-.07v-.07h-.08v-.07h-.07V76h-.07v-.07h-.07v-.07H40.3v-.07h-.07v-.07h-.07v-.07h-.07v-.07H40V75.5H40v-.08h-.07v-.07h-.07v-.07h-.07v-.07h-.08v-.07h-.07v-.07h-.07V75h-.07v-.07h-.07v-.07h-.07v-.07h-.07v-.07h-.07v-.07H39.1v-.07H39V74.5H39v-.07h-.07v-.07h-.07v-.07h-.08v-.07h-.07v-.07H38.6v-.07h-.07V74h-.07v-.07h-.07v-.07h-.07V73.8h-.07v-.07h-.07v-.07h-.07v-.08H38v-.07H38v-.07H37.9v-.07h-.08V73.3h-.07v-.07h-.07v-.07h-.07v-.07h-.07V73h-.07V73H37.4v-.07h-.07v-.07h-.07v-.07h-.07v-.08h-.07v-.07h-.07v-.07H37v-.07H36.9v-.07h-.07v-.07h-.07v-.07h-.07v-.07h-.07V72.1h-.07V72h-.07V72h-.07v-.07h-.07v-.07h-.07v-.08H36.2v-.07h-.07V71.6h-.07v-.07H36v-.07h-.07v-.07h-.07v-.07h-.07v-.07H35.7v-.07h-.07v-.07h-.07V71h-.07V71h-.07V70.9h-.07v-.08h-.07v-.07h-.07v-.07h-.07v-.07h-.08v-.07H35v-.07h-.07V70.4h-.07v-.07h-.07v-.07h-.07v-.07h-.07v-.07h-.07v-.07H34.5V70h-.07V69.9h-.07v-.07h-.07v-.07h-.08v-.07h-.07v-.07h-.07v-.07H34v-.07h-.07v-.07h-.07v-.07h-.07v-.07h-.07V69.2h-.07v-.07h-.07v-.08h-.07V69h-.07v-.07h-.07v-.07h-.08v-.07h-.07V68.7h-.07v-.07h-.07v-.07H33v-.07h-.07v-.07h-.07v-.07H32.8v-.07h-.07v-.07h-.07v-.08h-.07v-.07h-.07V68h-.07v-.07h-.08v-.07H32.3v-.07h-.07v-.07h-.07v-.07h-.07v-.07H32V67.5H32v-.07h-.07v-.07h-.07v-.07h-.07v-.08h-.07v-.07H31.6v-.07h-.07V67h-.08v-.07h-.07v-.07h-.07v-.07h-.07v-.07h-.07v-.07H31.1v-.07H31v-.07H31v-.07h-.07v-.07h-.07v-.08h-.07v-.07h-.07v-.07h-.07v-.07h-.08V66h-.07v-.07h-.07v-.07h-.07V65.8h-.07v-.07h-.07v-.07h-.07v-.07H30v-.07H30v-.07H29.9v-.08h-.07V65.3h-.07v-.07h-.07v-.07h-.08v-.07h-.07V65h-.07V65H29.4v-.07h-.07v-.07h-.07v-.07h-.07v-.07h-.07V64.6h-.07v-.07H29v-.08h-.07v-.07h-.07v-.07h-.07v-.07h-.08v-.07h-.07V64.1h-.07V64h-.07V64h-.07v-.07h-.07v-.07h-.07v-.07H28.2v-.07h-.07v-.07h-.07v-.08H28v-.07h-.07v-.07h-.07v-.07h-.08v-.07H27.7v-.07h-.07v-.07h-.07V63h-.07V63h-.07V62.9h-.07v-.07h-.07v-.07h-.07v-.07h-.07v-.08h-.07v-.07H27v-.07h-.08V62.4h-.07v-.07h-.07v-.07h-.07v-.07h-.07v-.07h-.07v-.07H26.5V62h-.07v-.07h-.07v-.07h-.07v-.07h-.07v-.08h-.07v-.07h-.07v-.07H26v-.07h-.07v-.07h-.07v-.07h-.07V50.5H31v0H31V50.4h-.07v-.07h-.08v-.07h-.07v-.07h-.07v-.07H30.6V50h-.07V50h-.07V49.9h-.07v-.07h-.07v-.07h-.07v-.07h-.07v-.07h-.07v-.07H30v-.07H30v-.07h-.07v-.07h-.07v-.07h-.07V49.2h-.07v-.08h-.07v-.07h-.07V49h-.07v-.07H29.4v-.07h-.07v-.07h-.07V48.7h-.07v-.07h-.07v-.07h-.07v-.07H29v-.07H28.9v-.07h-.07v-.07h-.07V48.2h-.07v-.07h-.07v-.07h-.07V48h-.07v-.07h-.07v-.07h-.07v-.07h-.07v-.07H28.2v-.07h-.08v-.07h-.07V47.5H28v-.07h-.07v-.07h-.07v-.08h-.07v-.07H27.7v-.07h-.07v-.07h-.07V47h-.07v-.07h-.07v-.07h-.07v-.07h-.07v-.07H27.2v-.07h-.07v-.07h-.07v-.07H27v-.07h-.07v-.08h-.07v-.07h-.07v-.07h-.07v-.07h-.07v-.07h-.07V46H26.5v-.07h-.07v-.07h-.07V45.8h-.08v-.07h-.07v-.07h-.07v-.07h-.07v-.07H26v-.08h-.07v-.07h-.07V45.3h-.07V34.46H64.36l-.08.07h.15l-.08.07h.15l-.08.07h.15l-.08.08h.15l-.08.07h.15l-.08.07h.15L64.7,35h.15l-.08.07h.15l-.08.07H65l-.08.07h.16l-.09.07h.16l-.09.07h.16l-.09.07h.16l-.08.07h.15l-.08.07h.15l-.08.07h.15l-.08.08h.15l-.08.07h.15l-.08.07h.15l-.08.07h.15l-.08.07h.15l-.08.07h.15l-.08.07H66l-.09.07h.16l-.09.07h.16l-.08.07h.15l-.08.07h.15l-.08.07h.15l-.08.07h.15l-.08.08h.15l-.08.07h.15l-.08.07h.15l-.08.07h.15l-.08.07h.15l-.08.07h.15l-.08.07h.16l-.09.07H67l-.09.07h.16l-.08.07h.15l-.08.07h.15l-.08.07h.15l-.08.08h.15l-.08.07h.15l-.08.07h.15l-.08.07h.15l-.08.07h.15l-.08.07h.15l-.08.07h.15l-.08.07h.16l-.09.07h.16l-.09.07H68l-.08.07H68l-.08.07h.15l-.07.07L71.87,35l0,0,.42-.45H100.7v.07h.07v.07h.07v.08h.07v.07H101v.07h.07V35h.08v.07h.07v.07h.07v.07h.07v.07h.07v.07h.07v.07h.07v.07h.07v.07h.07v.08h.07v.07h.07v.07h.07v.07H102v.07h.08V36h.07V36h.07v.07h.07v.07h.07v.07h.07v.07h.07v.07h.07v.07h.07v.08h.07v.07h.07v.07h.07v.07h.07v.07H103v.07H103V37h.07V37h.07v.07h.07v.07h.07v.07h.07v.07h.07v.07h.07v.08h.07v.07h.07v.07h.07v.07h.08v.07h.07v.07H104v.07H104V38h.07V38h.07v.07h.07v.07h.07v.07h.07v.07h.07v.08h.07v.07h.07v.07h.07v.07h.08v.07h.07v.07h.07v.07H105v.07H105v.07h.07V39h.07v.07h.07v.07h.07v.07h.07v.08h.07v.07h.07v.07h.07v.07h.08v.07h.07v.07h.07v.07h.07v.07h.07v.07H106v.07h.07V40h.07v.07h.07v.07h.07v.08h.07v.07h.07v.07h.07v.07h.08v.07h.07v.07h.07v.07h.07v.07h.07v.07h.07v.07H107v.07h.07V41h.07v.07h.07v.08h.07v.07h.07v.07h.07v.07h.08v.07h.07v.07h.07v.07h.07v.07h.07v.07h.07v.07h.07v.07H108v.07h.07V42h.07v.08h.07v.07h.07v.07h.07v.07h.08v.07h.07v.07h.07v.07h.07v.07h.07v.07h.07v.07h.07v.07h.07v.07H109v.07h.07V43h.07v.07h.07v.07h.07v.07h.08v.07h.07v.07h.07v.07h.07v.07h.07v.07h.07v.07h.07v.07h.07v.07h.07v.08H110v.07H110V44h.07V44h.07v.07h.08v.07h.07v.07h.07v.07h.07v.07h.07v.07h.07v.07h.07v.07h.07v.07h.07v.08h.07v.07H111v.07H111V45h.08V45h.07v.07h.07v.07h.07v.07h.07v.07h.07v.07h.07v.07h.07v.07h.07v.07h.07v.08h.07v.07h.07v.07H112v.07H112V46h.07V46h.07v.07h.07v.07h.07v.07h.07v.07h.07v.07h.07v.07h.07v.07h.07v.08h.07v.07h.07v.07h.07v.07H113v.07H113v.07h.07V47h.07v.07h.07v.07h.07v.07h.07v.07h.07v.07h.07v.07h.07v.08h.07v.07h.07v.07h.07v.07h.08v.07h.07v.07H114v.07h.07V48h.07v.07h.07v.07h.07v.07h.07v.07h.07v.07h.07v.08h.07v.07h.07v.07h.07v.07h.08v.07h.07v.07h.07v.07H115v.07h.07V49h.07v.07h.07v.07h.07v.07h.07v.07h.07v.08h.07v.07h.07v.07h.07v.07h.08v.07h.07v.07h.07v.07h.07v.07H116v.07h.07V50h.07v.07h.07v.07h.07v.07h.07v.08h.07v.07h.07v.07h.07v.07h.08v.07h.07v.07h.07v.07h.07v.07h.07v.07H117v.07h.07V51h.07V51h.07v.08h.07v.07h.07v.07h.07v.07h.07v.07h.08v.07h.07v.07h.07v.07h.07v.07h.07v.07h.07v.07H118v.07H118V52h.07V52h.07v.07h.07v.07h.07v.07h.07v.07h.08v.07h.07v.07h.07v.07h.07v.07h.07v.07h.07v.07h.07v.07H119v.07H119V53h.07V53h.07v.07h.07v.07h.08v.07h.07v.07h.07v.07h.07v.07h.07v.07h.07v.07h.07v.07h.07v.07h.07v.07H120v.08H120V54h.07V54h.07v.07h.08v.07h.07v.07h.07v.07h.07v.07h.07v.07h.07v.07h.07v.07h.07v.07h.07v.07h.07v.08h.07v.07H121v.07h.07V55h.08v.07h.07v.07h.07v.07h.07v.07h.07v.07h.07v.07h.07v.07h.07v.07h.07v.07h.07v.08h.07v.07h.07v.07H122v.07h.08V56h.07v.07h.07v.07h.07v.07h.07v.07h.07v.07h.07v.07h.07v.07h.07v.07h.07v.08h.07v.07h.07v.07h.07v.07H123v.07h.07V57h.07v.07h.07v.07h.07v.07h.07v.07h.07v.07h.07v.07h.07v.07h.07v.08h.07v.07h.07v.07h.07v.07h.08v.07H124v.07h.07V58h.07v.07h.07v.07h.07v.07h.07v.07h.07v.07h.07v.07h.07v.08h.07v.07h.07v.07h.07v.07h.08v.07h.07v.07H125v.07h.07V59h.07V59h.07v.07h.07v.07h.07v.07h.07v.08h.07v.07h.07v.07h.07v.07h.07v.07h.08v.07h.07v.07h.07v.07H126v.07H126V60h.07V60h.07v.07h.07v.07h.07v.08h.07v.07Z"/><polygon points="135.25 85.34 135.1 85.2 135.17 85.2 135.25 85.34"/><polygon class="cls-4" points="51.81 45.3 25.79 45.3 25.79 34.46 64.36 34.46 51.81 45.3"/><polygon class="cls-4" points="100.7 50.74 100.7 61.58 76.48 61.58 76.48 96.61 65.64 96.61 65.64 61.58 78.18 50.74 100.7 50.74"/><polygon class="cls-4" points="100.7 34.55 100.7 45.39 76.4 45.39 60.82 58.83 60.25 59.32 60.25 61.34 60.28 61.34 60.28 96.37 49.44 96.37 49.44 61.34 25.79 61.34 25.79 50.5 53.88 50.5 71.87 34.98 71.88 35 72.31 34.55 100.7 34.55"/><path class="cls-1" d="M170.83,101.43V42.13h-14.6V23.75h47V42.13h-14.6v59.3Z"/><path class="cls-1" d="M211.27,101.43V23.75h40v17H228.62V54.23H250V70.9H228.62V84h22.69v17.4Z"/><path class="cls-1" d="M309.44,26.79V49.92a29.45,29.45,0,0,0-7.3-7.1,15.2,15.2,0,0,0-20.24,4q-4.75,6.33-4.75,16.27,0,9.32,4.85,15.49a15.14,15.14,0,0,0,20.14,3.92,29.27,29.27,0,0,0,7.3-7.15V98.48a37.92,37.92,0,0,1-8.48,3.68,31.37,31.37,0,0,1-8.43,1.23,32,32,0,0,1-9.89-1.52,26.27,26.27,0,0,1-8.34-4.61,36.75,36.75,0,0,1-11.17-14.7,49.68,49.68,0,0,1-3.82-20,49.57,49.57,0,0,1,2.45-16.17,41.21,41.21,0,0,1,7.3-13.23,32.38,32.38,0,0,1,10.49-8.53A30.75,30.75,0,0,1,301,23.12,41.37,41.37,0,0,1,309.44,26.79Z"/><path class="cls-1" d="M317.44,101.43V23.75h17.79V53.94H359V23.75h17.84v77.68H359V69.82H335.23v31.61Z"/><path class="cls-1" d="M399.39,101.43V42.13h-14.6V23.75h47V42.13h-14.6v59.3Z"/><path class="cls-1" d="M439.83,101.43V23.75h18.62q11,0,15.24,1.23a19.33,19.33,0,0,1,7.45,4,21.42,21.42,0,0,1,5.39,8.13A29.86,29.86,0,0,1,488.44,48q0,9.07-3.72,14.65a17.83,17.83,0,0,1-10.88,7.5l17.79,31.32H471.54L456.54,71v30.44Zm16.71-41h3.33c3.79,0,6.59-.77,8.38-2.31s2.65-4,2.65-7.35q0-5.82-2.5-8.28c-1.63-1.66-4.39-2.5-8.28-2.5h-3.58Z"/><path class="cls-1" d="M499.63,101.43V23.75h40v17H517V54.23h21.36V70.9H517V84h22.69v17.4Z"/><path class="cls-1" d="M547.67,101.43V23.75h40v17H565V54.23h21.37V70.9H565V84H587.7v17.4Z"/></g></g></svg>